<svg width="500" height="500" viewBox="0 0 500 500" fill="none" xmlns="http://www.w3.org/2000/svg">
<path d="M262.575 3.40379C254.716 -1.1346 245.034 -1.1346 237.175 3.4038L42.6936 115.724C34.8386 120.26 30 128.642 30 137.713V362.286C30 371.359 34.8403 379.742 42.6974 384.278L109.207 422.674C115.979 426.584 124.443 421.697 124.443 413.878V192.233C124.443 183.163 129.28 174.782 137.134 170.245L237.176 112.45C245.034 107.91 254.717 107.909 262.576 112.446L362.688 170.247C370.545 174.783 375.385 183.166 375.385 192.238V307.765C375.385 316.837 370.545 325.22 362.688 329.756L262.578 387.555C254.718 392.093 245.033 392.091 237.175 387.549L196.846 364.242C190.074 360.328 181.606 365.215 181.606 373.036V449.825C181.606 458.893 186.442 467.273 194.293 471.811L237.173 496.592C245.032 501.135 254.718 501.136 262.579 496.596L457.056 384.279C464.911 379.742 469.75 371.36 469.75 362.289V137.713C469.75 128.642 464.911 120.26 457.056 115.724L262.575 3.40379Z" fill="#1D3068"/>
<path d="M308.064 295.281C314.349 291.653 318.222 284.946 318.222 277.688V222.237C318.222 214.979 314.349 208.272 308.064 204.644L260.037 176.919C253.749 173.289 246.002 173.291 239.716 176.924L191.755 204.642C185.474 208.272 181.606 214.976 181.606 222.23V277.695C181.606 284.949 185.474 291.653 191.755 295.283L239.716 323.001C246.002 326.634 253.749 326.636 260.037 323.006L308.064 295.281Z" fill="#1D3068"/>
</svg>
