<svg width="14" height="14" viewBox="0 0 14 14" fill="none" xmlns="http://www.w3.org/2000/svg">
<g id="vuesax/bulk/copy">
<g id="copy">
<path id="Vector" d="M9.33335 7.52435V9.97435C9.33335 12.016 8.51669 12.8327 6.47502 12.8327H4.02502C1.98335 12.8327 1.16669 12.016 1.16669 9.97435V7.52435C1.16669 5.48268 1.98335 4.66602 4.02502 4.66602H6.47502C8.51669 4.66602 9.33335 5.48268 9.33335 7.52435Z" fill="#1D3068" fill-opacity="0.6"/>
<path id="Vector_2" opacity="0.4" d="M9.97499 1.16602H7.52499C5.51249 1.16602 4.69582 1.96518 4.67249 3.93685H6.47499C8.92499 3.93685 10.0625 5.07435 10.0625 7.52435V9.32685C12.0342 9.30352 12.8333 8.48685 12.8333 6.47435V4.02435C12.8333 1.98268 12.0167 1.16602 9.97499 1.16602Z" fill="#1D3068" fill-opacity="0.6"/>
</g>
</g>
</svg>
