<svg width="94" height="107" viewBox="0 0 94 107" fill="none" xmlns="http://www.w3.org/2000/svg">
<g id="Group 181">
<path id="Vector" d="M90.7562 24.6321L49.6819 0.723265C48.0246 -0.241088 45.9745 -0.241088 44.3172 0.723265L3.25005 24.6321C1.59279 25.5964 0.571289 27.3823 0.571289 29.311V77.1143C0.571289 79.043 1.59279 80.8289 3.25005 81.7932L5.25019 82.9576L38.974 102.588L44.3172 105.702C45.9745 106.666 48.0246 106.666 49.6819 105.702L90.749 81.7932C92.4063 80.8289 93.4278 79.043 93.4278 77.1143V29.3181C93.4278 27.3894 92.4063 25.6036 90.749 24.6392L90.7562 24.6321Z" fill="#1D3068"/>
<path id="Vector_2" d="M47.0027 80.9218C43.1453 80.9218 39.7236 80.2932 36.7234 79.0359C33.7232 77.7787 31.1801 75.9714 29.0943 73.6141C27.0084 71.2568 25.4297 68.3709 24.3582 64.9421C23.2867 61.5204 22.751 57.613 22.751 53.2198C22.751 48.8267 23.2867 44.9264 24.3582 41.4976C25.4297 38.0759 27.0084 35.1686 29.0943 32.7898C31.1801 30.4111 33.7232 28.6038 36.7234 27.368C39.7236 26.1394 43.1453 25.525 47.0027 25.525C50.8601 25.525 54.2818 26.1394 57.282 27.368C60.2822 28.5967 62.8181 30.4039 64.9111 32.7898C66.9969 35.1686 68.5756 38.0759 69.6471 41.4976C70.7186 44.9264 71.2544 48.8338 71.2544 53.2198C71.2544 57.6058 70.7186 61.5204 69.6471 64.9421C68.5756 68.3709 66.9969 71.2568 64.9111 73.6141C62.8252 75.9714 60.2822 77.7787 57.282 79.0359C54.2818 80.2932 50.8601 80.9218 47.0027 80.9218ZM47.0027 69.0424C50.6958 69.0424 53.4888 67.6637 55.3961 64.9064C57.2963 62.149 58.2463 58.2559 58.2463 53.227C58.2463 48.198 57.2963 44.3049 55.3961 41.5476C53.496 38.7902 50.6958 37.4116 47.0027 37.4116C43.3096 37.4116 40.5094 38.7902 38.6092 41.5476C36.7091 44.3049 35.759 48.198 35.759 53.227C35.759 58.2559 36.7091 62.1562 38.6092 64.9064C40.5094 67.6637 43.3096 69.0424 47.0027 69.0424Z" fill="#F8F8FF"/>
</g>
</svg>
