<svg width="94" height="107" viewBox="0 0 94 107" fill="none" xmlns="http://www.w3.org/2000/svg">
<g id="Group 180">
<path id="Vector" d="M90.8997 24.6321L49.8254 0.723265C48.1682 -0.241088 46.118 -0.241088 44.4608 0.723265L3.3936 24.6321C1.73634 25.5964 0.714844 27.3823 0.714844 29.311V77.1143C0.714844 79.043 1.73634 80.8289 3.3936 81.7932L5.39374 82.9576L39.1175 102.588L44.4608 105.702C46.118 106.666 48.1682 106.666 49.8254 105.702L90.8926 81.7932C92.5499 80.8289 93.5714 79.043 93.5714 77.1143V29.3181C93.5714 27.3894 92.5499 25.6036 90.8926 24.6392L90.8997 24.6321Z" fill="#1D3068"/>
<path id="Vector_2" d="M50.068 26.4304H63.3975V59.5113H70.6265V69.3049H63.3975V80.2271H51.0323V69.3049H23.5732V59.5113L50.068 26.4304ZM36.2598 59.5113H51.0323V40.9672L36.2598 59.5113Z" fill="#F8F8FF"/>
</g>
</svg>
