<svg width="183" height="40" viewBox="0 0 183 40" fill="none" xmlns="http://www.w3.org/2000/svg">
<path d="M18.5108 0.272304C17.8853 -0.0907681 17.1147 -0.0907677 16.4892 0.272304L1.01029 9.2579C0.385107 9.62082 0 10.2914 0 11.0171V28.9829C0 29.7087 0.385239 30.3794 1.01059 30.7422L6.30417 33.814C6.84312 34.1267 7.51678 33.7357 7.51678 33.1102V15.3786C7.51678 14.6531 7.90179 13.9826 8.52684 13.6196L16.4893 8.99598C17.1147 8.63283 17.8854 8.63272 18.5108 8.99571L26.4789 13.6197C27.1042 13.9826 27.4894 14.6532 27.4894 15.379V24.6212C27.4894 25.347 27.1042 26.0176 26.4789 26.3805L18.511 31.0044C17.8854 31.3674 17.1146 31.3673 16.4892 31.0039L13.2793 29.1393C12.7404 28.8262 12.0664 29.2172 12.0664 29.8429V35.986C12.0664 36.7115 12.4513 37.3819 13.0762 37.7449L16.4891 39.7274C17.1146 40.0908 17.8855 40.0909 18.5111 39.7277L33.9897 30.7423C34.6149 30.3794 35 29.7088 35 28.9832V11.017C35 10.2914 34.6149 9.62082 33.9897 9.2579L18.5108 0.272304Z" fill="#1D3068"/>
<path d="M22.7256 18.5291C23.9045 19.1702 23.9045 20.8296 22.7256 21.4707L15.6079 25.3413C14.4622 25.9643 13.0542 25.1534 13.0542 23.8705L13.0542 16.1293C13.0542 14.8464 14.4622 14.0355 15.6079 14.6585L22.7256 18.5291Z" fill="#0066CC"/>
<path d="M62.548 5.69989H66.562V28.6055H62.548V5.69989Z" fill="#1D3068"/>
<path d="M85.3227 28.6055H81.3087V26.4104C80.799 27.1951 80.1194 27.8102 79.2699 28.2556C78.4204 28.6797 77.3585 28.8918 76.0842 28.8918C74.9161 28.8918 73.833 28.6797 72.8348 28.2556C71.8579 27.8102 71.0084 27.2057 70.2863 26.4422C69.5642 25.6575 69.0014 24.7455 68.5979 23.7063C68.2156 22.6458 68.0244 21.5111 68.0244 20.3022C68.0244 19.0721 68.2156 17.9374 68.5979 16.8982C69.0014 15.8378 69.5642 14.9258 70.2863 14.1622C71.0084 13.3775 71.8579 12.7731 72.8348 12.3489C73.833 11.9035 74.9268 11.6808 76.1161 11.6808C77.3904 11.6808 78.4416 11.9035 79.2699 12.3489C80.1194 12.7731 80.799 13.3775 81.3087 14.1622V11.9989H85.3227V28.6055ZM81.3087 19.5387C81.1601 18.4358 80.6822 17.5133 79.8752 16.7709C79.0681 16.0074 78.0381 15.6257 76.7851 15.6257C76.0842 15.6257 75.4471 15.7529 74.8737 16.0074C74.3002 16.2619 73.8118 16.6013 73.4082 17.0255C73.026 17.4496 72.7286 17.948 72.5163 18.5207C72.3039 19.0933 72.1977 19.6978 72.1977 20.334C72.1977 20.9491 72.3039 21.5323 72.5163 22.0838C72.7286 22.6352 73.026 23.123 73.4082 23.5472C73.8118 23.9714 74.3002 24.3107 74.8737 24.5652C75.4471 24.8197 76.0842 24.947 76.7851 24.947C77.401 24.947 77.9744 24.8515 78.5053 24.6607C79.0363 24.4486 79.4929 24.1729 79.8752 23.8335C80.2787 23.473 80.5973 23.0594 80.8309 22.5928C81.0857 22.105 81.245 21.596 81.3087 21.0657V19.5387Z" fill="#1D3068"/>
<path d="M93.595 7.09968V11.9989H97.7364V15.3393H93.595V22.8473C93.595 23.7805 93.8074 24.4062 94.2322 24.7243C94.6569 25.0424 95.241 25.2015 95.9843 25.2015C96.2604 25.2015 96.5365 25.1909 96.8126 25.1697C97.1099 25.1273 97.4178 25.0848 97.7364 25.0424V28.701C96.7595 28.8282 95.8569 28.8918 95.0286 28.8918C94.1791 28.8918 93.4145 28.807 92.7349 28.6373C92.0553 28.4677 91.4819 28.1813 91.0146 27.7784C90.5474 27.3542 90.1863 26.8134 89.9315 26.1559C89.6979 25.4772 89.5811 24.6501 89.5811 23.6744V15.3393H86.7458V11.9989H89.5811V7.09968H93.595Z" fill="#1D3068"/>
<path d="M98.8867 7.386C98.8867 6.72853 99.1204 6.16649 99.5876 5.69989C100.076 5.2333 100.66 5 101.34 5C102.019 5 102.593 5.2333 103.06 5.69989C103.548 6.16649 103.793 6.72853 103.793 7.386C103.793 8.06469 103.548 8.63733 103.06 9.10392C102.593 9.54931 102.019 9.77201 101.34 9.77201C100.66 9.77201 100.076 9.54931 99.5876 9.10392C99.1204 8.63733 98.8867 8.06469 98.8867 7.386ZM99.3327 11.9989H103.347V28.6055H99.3327V11.9989Z" fill="#1D3068"/>
<path d="M139.997 28.6055H135.983V26.4104C135.473 27.1951 134.793 27.8102 133.944 28.2556C133.094 28.6798 132.033 28.8918 130.758 28.8918C129.59 28.8918 128.507 28.6798 127.509 28.2556C126.532 27.8102 125.682 27.2057 124.96 26.4422C124.238 25.6575 123.675 24.7455 123.272 23.7063C122.89 22.6458 122.698 21.5111 122.698 20.3022C122.698 19.0721 122.89 17.9374 123.272 16.8982C123.675 15.8378 124.238 14.9258 124.96 14.1623C125.682 13.3775 126.532 12.7731 127.509 12.3489C128.507 11.9035 129.601 11.6808 130.79 11.6808C132.064 11.6808 133.116 11.9035 133.944 12.3489C134.793 12.7731 135.473 13.3775 135.983 14.1623V11.9989H139.997V28.6055ZM135.983 19.5387C135.834 18.4358 135.356 17.5133 134.549 16.7709C133.742 16.0074 132.712 15.6257 131.459 15.6257C130.758 15.6257 130.121 15.7529 129.548 16.0074C128.974 16.2619 128.486 16.6013 128.082 17.0255C127.7 17.4496 127.403 17.948 127.19 18.5207C126.978 19.0933 126.872 19.6978 126.872 20.334C126.872 20.9491 126.978 21.5323 127.19 22.0838C127.403 22.6352 127.7 23.123 128.082 23.5472C128.486 23.9714 128.974 24.3107 129.548 24.5652C130.121 24.8197 130.758 24.947 131.459 24.947C132.075 24.947 132.648 24.8515 133.179 24.6607C133.71 24.4486 134.167 24.1729 134.549 23.8335C134.953 23.473 135.271 23.0594 135.505 22.5928C135.76 22.105 135.919 21.596 135.983 21.0658V19.5387Z" fill="#1D3068"/>
<path d="M105.773 11.9989H109.787V14.6395C110.403 13.7275 111.189 13.0064 112.145 12.4761C113.101 11.9459 114.194 11.6808 115.426 11.6808C116.318 11.6808 117.125 11.8293 117.847 12.1262C118.569 12.4231 119.175 12.8473 119.663 13.3987C120.173 13.929 120.555 14.5652 120.81 15.3075C121.086 16.0498 121.224 16.8664 121.224 17.7572V28.6055H117.21V19.0615C117.21 17.9586 116.902 17.1103 116.286 16.5164C115.67 15.9226 114.885 15.6257 113.929 15.6257C113.334 15.6257 112.782 15.7635 112.272 16.0392C111.784 16.2937 111.359 16.6331 110.998 17.0573C110.637 17.4814 110.35 17.9799 110.138 18.5525C109.925 19.1039 109.809 19.666 109.787 20.2386V28.6055H105.773V11.9989Z" fill="#1D3068"/>
<path d="M43.7969 35V11.9989H47.8108V14.1623C48.3418 13.3775 49.0214 12.7731 49.8497 12.3489C50.6992 11.9035 51.7611 11.6808 53.0354 11.6808C54.2247 11.6808 55.3078 11.9035 56.2848 12.3489C57.2617 12.7731 58.1112 13.3775 58.8333 14.1623C59.5554 14.9258 60.1076 15.8378 60.4899 16.8982C60.8934 17.9374 61.0951 19.0721 61.0951 20.3022C61.0951 21.5111 60.8934 22.6458 60.4899 23.7063C60.1076 24.7455 59.5554 25.6575 58.8333 26.4422C58.1112 27.2057 57.2617 27.8102 56.2848 28.2556C55.3078 28.6798 54.2247 28.8918 53.0354 28.8918C51.7611 28.8918 50.6992 28.6798 49.8497 28.2556C49.0214 27.8102 48.3418 27.1951 47.8108 26.4104V35H43.7969ZM47.8108 19.5387V21.0658C47.8746 21.596 48.0232 22.105 48.2568 22.5928C48.5117 23.0594 48.8303 23.473 49.2125 23.8335C49.6161 24.1729 50.0833 24.4486 50.6142 24.6607C51.1452 24.8515 51.7186 24.947 52.3345 24.947C53.0354 24.947 53.6725 24.8197 54.2459 24.5652C54.8193 24.3107 55.2972 23.9714 55.6795 23.5472C56.083 23.123 56.3909 22.6352 56.6033 22.0838C56.8157 21.5323 56.9219 20.9491 56.9219 20.334C56.9219 19.6978 56.8157 19.0933 56.6033 18.5207C56.3909 17.948 56.083 17.4496 55.6795 17.0255C55.2972 16.6013 54.8193 16.2619 54.2459 16.0074C53.6725 15.7529 53.0354 15.6257 52.3345 15.6257C51.0815 15.6257 50.0514 16.0074 49.2444 16.7709C48.4374 17.5133 47.9595 18.4358 47.8108 19.5387Z" fill="#1D3068"/>
<path d="M166.246 7.91406L172.074 23.8857L177.932 7.91406H182.279L174.571 28.5724H169.576L161.868 7.91406H166.246Z" fill="#0066CC"/>
<path d="M150.372 11.4907H143.497V7.91406H161.257V11.4907H154.412V28.5724H150.372V11.4907Z" fill="#0066CC"/>
</svg>
