<svg width="20" height="20" viewBox="0 0 20 20" fill="none" xmlns="http://www.w3.org/2000/svg">
<g id="telegram">
<path id="Vector" d="M2.57372 9.33893C2.57372 9.33893 9.523 6.41201 11.9331 5.38137C12.857 4.96915 15.9902 3.64993 15.9902 3.64993C15.9902 3.64993 17.4363 3.07282 17.3158 4.47443C17.2756 5.05159 16.9543 7.07156 16.6329 9.25648C16.1509 12.3483 15.6287 15.7287 15.6287 15.7287C15.6287 15.7287 15.5484 16.6769 14.8655 16.8418C14.1826 17.0067 13.0578 16.2647 12.857 16.0998C12.6963 15.9761 9.84433 14.121 8.79994 13.214C8.51874 12.9667 8.19741 12.472 8.84008 11.8949C10.2862 10.5345 12.0135 8.84426 13.0578 7.77243C13.5399 7.2777 14.0219 6.12343 12.0134 7.52504C9.16147 9.54506 6.34962 11.4414 6.34962 11.4414C6.34962 11.4414 5.7069 11.8536 4.50184 11.4826C3.29672 11.1116 1.8908 10.6169 1.8908 10.6169C1.8908 10.6169 0.926798 9.99854 2.57372 9.33893Z" fill="white"/>
</g>
</svg>
