<svg width="32" height="32" viewBox="0 0 32 32" fill="none" xmlns="http://www.w3.org/2000/svg">
<path d="M14.5812 0.846269C15.504 0.321537 16.635 0.321537 17.5578 0.846268L28.6163 7.13417C29.5576 7.6694 30.139 8.66884 30.139 9.75166V22.2483C30.139 23.3312 29.5576 24.3306 28.6163 24.8658L17.5578 31.1537C16.635 31.6785 15.504 31.6785 14.5812 31.1537L3.52272 24.8658C2.58142 24.3306 2 23.3312 2 22.2483V9.75166C2 8.66884 2.58142 7.6694 3.52272 7.13417L14.5812 0.846269Z" fill="#0066CC"/>
<path d="M21.4884 14.4555C22.7262 15.1286 22.7262 16.8711 21.4884 17.5442L14.0147 21.6083C12.8117 22.2625 11.3334 21.411 11.3334 20.064L11.3334 11.9357C11.3334 10.5887 12.8117 9.73718 14.0147 10.3914L21.4884 14.4555Z" fill="white"/>
</svg>
